<?xml version="1.0" encoding="UTF-8"?>
<svg version="1.1" xmlns="http://www.w3.org/2000/svg" width="100" height="100">
<path d="M0 0 C0.71446289 -0.0087616 1.42892578 -0.01752319 2.16503906 -0.02655029 C4.51690151 -0.04848224 6.86686987 -0.03401601 9.21875 -0.01708984 C10.85872761 -0.02045982 12.49870279 -0.02531396 14.13867188 -0.03158569 C17.57185703 -0.03894853 21.00439072 -0.02827126 24.4375 -0.00488281 C28.83284357 0.02360553 33.22666065 0.00719826 37.62194824 -0.02274513 C41.00727794 -0.04083458 44.39224719 -0.03505273 47.77758789 -0.02210617 C49.39786969 -0.01877666 51.01818448 -0.02284327 52.63842773 -0.03450394 C54.90566356 -0.04724101 57.17044642 -0.02780132 59.4375 0 C60.72591797 0.00397797 62.01433594 0.00795593 63.34179688 0.01205444 C67.69943743 0.83135671 69.15094222 2.05802415 71.71875 5.64697266 C72.35366821 9.02392578 72.35366821 9.02392578 72.36572266 12.92822266 C72.37448425 13.64268555 72.38324585 14.35714844 72.39227295 15.09326172 C72.4142049 17.44512416 72.39973866 19.79509252 72.3828125 22.14697266 C72.38618248 23.78695027 72.39103661 25.42692545 72.39730835 27.06689453 C72.40467119 30.50007969 72.39399392 33.93261337 72.37060547 37.36572266 C72.34211713 41.76106623 72.35852439 46.15488331 72.38846779 50.5501709 C72.40655723 53.9355006 72.40077539 57.32046984 72.38782883 60.70581055 C72.38449932 62.32609234 72.38856592 63.94640713 72.40022659 65.56665039 C72.41296367 67.83388621 72.39352397 70.09866907 72.36572266 72.36572266 C72.35975571 74.29834961 72.35975571 74.29834961 72.35366821 76.27001953 C71.53436595 80.62766008 70.3076985 82.07916487 66.71875 84.64697266 C63.34179687 85.28189087 63.34179687 85.28189087 59.4375 85.29394531 C58.72303711 85.30270691 58.00857422 85.31146851 57.27246094 85.32049561 C54.92059849 85.34242756 52.57063013 85.32796132 50.21875 85.31103516 C48.57877239 85.31440513 46.93879721 85.31925927 45.29882812 85.32553101 C41.86564297 85.33289384 38.43310928 85.32221657 35 85.29882812 C30.60465643 85.27033979 26.21083935 85.28674705 21.81555176 85.31669044 C18.43022206 85.33477989 15.04525281 85.32899804 11.65991211 85.31605148 C10.03963031 85.31272198 8.41931552 85.31678858 6.79907227 85.32844925 C4.53183644 85.34118632 2.26705358 85.32174663 0 85.29394531 C-1.28841797 85.28996735 -2.57683594 85.28598938 -3.90429688 85.28189087 C-8.26193743 84.4625886 -9.71344222 83.23592116 -12.28125 79.64697266 C-12.91616821 76.27001953 -12.91616821 76.27001953 -12.92822266 72.36572266 C-12.93698425 71.65125977 -12.94574585 70.93679687 -12.95477295 70.20068359 C-12.9767049 67.84882115 -12.96223866 65.49885279 -12.9453125 63.14697266 C-12.94868248 61.50699504 -12.95353661 59.86701987 -12.95980835 58.22705078 C-12.96717119 54.79386562 -12.95649392 51.36133194 -12.93310547 47.92822266 C-12.90461713 43.53287909 -12.92102439 39.139062 -12.95096779 34.74377441 C-12.96905723 31.35844471 -12.96327539 27.97347547 -12.95032883 24.58813477 C-12.94699932 22.96785297 -12.95106592 21.34753818 -12.96272659 19.72729492 C-12.97546367 17.4600591 -12.95602397 15.19527624 -12.92822266 12.92822266 C-12.92424469 11.63980469 -12.92026672 10.35138672 -12.91616821 9.02392578 C-11.51600901 1.57686898 -7.00544459 0.02162918 0 0 Z M-7.28125 7.64697266 C-8.37096048 10.9161041 -8.42131248 13.34180917 -8.44238281 16.78320312 C-8.45199036 18.0481662 -8.4615979 19.31312927 -8.47149658 20.61642456 C-8.4763445 21.99900126 -8.48062335 23.38158005 -8.484375 24.76416016 C-8.49012891 26.18279014 -8.49588661 27.6014201 -8.50164795 29.02005005 C-8.51214889 31.99416465 -8.51799753 34.96825229 -8.52148438 37.94238281 C-8.52696822 41.74776555 -8.55099732 45.55279033 -8.57945633 49.35806084 C-8.59810715 52.28863558 -8.60328959 55.21912449 -8.60482025 58.14975357 C-8.60784165 59.55234866 -8.61585292 60.95494242 -8.62900543 62.3574791 C-8.64611554 64.32223141 -8.64233369 66.28713179 -8.63769531 68.25195312 C-8.64134094 69.36875458 -8.64498657 70.48555603 -8.64874268 71.63619995 C-8.23150484 75.05452191 -7.3738629 76.92906097 -5.28125 79.64697266 C-2.01211856 80.73668314 0.41358651 80.78703514 3.85498047 80.80810547 C5.11994354 80.81771301 6.38490662 80.82732056 7.6882019 80.83721924 C9.0707786 80.84206716 10.45335739 80.846346 11.8359375 80.85009766 C13.25456748 80.85585156 14.67319744 80.86160927 16.09182739 80.86737061 C19.06594199 80.87787155 22.04002963 80.88372018 25.01416016 80.88720703 C28.81954289 80.89269088 32.62456767 80.91671998 36.42983818 80.94517899 C39.36041292 80.9638298 42.29090184 80.96901225 45.22153091 80.97054291 C46.624126 80.97356431 48.02671976 80.98157558 49.42925644 80.99472809 C51.39400875 81.0118382 53.35890913 81.00805635 55.32373047 81.00341797 C56.99893265 81.00888641 56.99893265 81.00888641 58.70797729 81.01446533 C62.12629925 80.5972275 64.00083831 79.73958556 66.71875 77.64697266 C67.8765006 74.17372085 67.78741652 71.28629818 67.71875 67.64697266 C67.01234375 67.93572266 66.3059375 68.22447266 65.578125 68.52197266 C58.34138237 71.1402916 52.00552325 72.03326904 44.34375 72.02197266 C43.07869629 72.02390625 43.07869629 72.02390625 41.78808594 72.02587891 C36.72666184 71.93774964 32.53117808 71.19035237 27.71875 69.64697266 C24.495907 69.38914522 22.3860394 69.36565335 19.40234375 70.62353516 C16.48654499 71.73552828 14.01094564 72.04753683 10.90625 72.27197266 C9.44251953 72.38412109 9.44251953 72.38412109 7.94921875 72.49853516 C7.21316406 72.54751953 6.47710937 72.59650391 5.71875 72.64697266 C5.71875 70.99697266 5.71875 69.34697266 5.71875 67.64697266 C6.358125 67.33759766 6.9975 67.02822266 7.65625 66.70947266 C9.65485821 65.81245635 9.65485821 65.81245635 10.71875 64.64697266 C11.24321101 61.57512961 11.2641042 59.47655055 9.51953125 56.82275391 C9.00777344 56.18724609 8.49601562 55.55173828 7.96875 54.89697266 C0.66441067 45.6540409 -0.4375781 36.28374042 0.43505859 24.79443359 C1.4214391 17.3278218 5.25750356 10.59530124 9.71875 4.64697266 C7.82364301 4.56536518 5.92750496 4.50750807 4.03125 4.45947266 C2.97550781 4.42466797 1.91976563 4.38986328 0.83203125 4.35400391 C-2.69099086 4.68553045 -4.49619596 5.49420116 -7.28125 7.64697266 Z M9.71875 12.64697266 C9.13222656 13.51322266 8.54570312 14.37947266 7.94140625 15.27197266 C4.04542539 23.2475833 3.49539222 30.98936373 4.71875 39.64697266 C6.60479378 45.10497717 9.07054553 49.78685618 12.90625 54.11572266 C15.09536866 57.17294009 15.14742743 58.75191601 14.96875 62.45947266 C14.93265625 63.43529297 14.8965625 64.41111328 14.859375 65.41650391 C14.78976563 66.52058594 14.78976563 66.52058594 14.71875 67.64697266 C15.95625 67.15197266 15.95625 67.15197266 17.21875 66.64697266 C22.47851341 65.14418311 26.7556272 65.03962407 31.92578125 66.63916016 C36.223155 67.78099582 40.04684937 68.03045366 44.46875 68.02197266 C45.25644775 68.02181152 46.04414551 68.02165039 46.85571289 68.02148438 C54.67823089 67.86918615 61.18131338 66.00526373 67.71875 61.64697266 C68.17708448 59.42590835 68.17708448 59.42590835 68.10693359 56.81762695 C68.11639008 55.81285812 68.12584656 54.80808929 68.1355896 53.77287292 C68.12951691 52.68331802 68.12344421 51.59376312 68.1171875 50.47119141 C68.12149277 48.79522636 68.12149277 48.79522636 68.12588501 47.08540344 C68.12792975 44.71733088 68.12237138 42.34924158 68.10986328 39.98120117 C68.0938612 36.35963958 68.1096756 32.73920177 68.12890625 29.11767578 C68.12692301 26.81884519 68.12307765 24.5200153 68.1171875 22.22119141 C68.12326019 21.1377092 68.12933289 20.05422699 68.1355896 18.93791199 C68.20447029 11.73751473 68.20447029 11.73751473 64.71875 5.64697266 C61.97855954 4.73357583 60.19479442 4.48702688 57.35839844 4.40649414 C56.48028503 4.38074814 55.60217163 4.35500214 54.69744873 4.32847595 C50.68207616 4.24393797 46.66687589 4.17845921 42.65087891 4.13208008 C40.53631629 4.10044438 38.42193096 4.05269451 36.30810547 3.98852539 C33.25160369 3.89705483 30.19829065 3.85843322 27.140625 3.83056641 C25.73245514 3.77333656 25.73245514 3.77333656 24.2958374 3.71495056 C16.78370206 3.73707605 13.83718085 6.56161135 9.71875 12.64697266 Z " fill="#000000" transform="translate(20.28125,7.35302734375)"/>
<path d="M0 0 C4.62 0 9.24 0 14 0 C14 5.36196486 13.37772421 6.54730161 10.5 10.8125 C9.8503125 11.78832031 9.200625 12.76414062 8.53125 13.76953125 C8.0259375 14.50558594 7.520625 15.24164063 7 16 C9.31 16 11.62 16 14 16 C13.938125 14.906875 13.87625 13.81375 13.8125 12.6875 C14 9 14 9 15.15625 7.28125 C18.84026017 4.72117514 23.70637944 5.84846045 28 6 C28 10.62 28 15.24 28 20 C19.6015625 20.1953125 19.6015625 20.1953125 17 20 C16.34 19.34 15.68 18.68 15 18 C14.67 18.66 14.34 19.32 14 20 C9.38 20 4.76 20 0 20 C0 14.63803514 0.62227579 13.45269839 3.5 9.1875 C4.1496875 8.21167969 4.799375 7.23585938 5.46875 6.23046875 C5.9740625 5.49441406 6.479375 4.75835937 7 4 C4.69 4 2.38 4 0 4 C0 2.68 0 1.36 0 0 Z M19 11 C19 12.32 19 13.64 19 15 C20.32 15 21.64 15 23 15 C23 13.68 23 12.36 23 11 C21.68 11 20.36 11 19 11 Z " fill="#000000" transform="translate(34,32)"/>
<path d="M0 0 C2 1 2 1 3 3 C3.51981506 6.56444611 3.63102777 9.73794446 2 13 C-1.26205554 14.63102777 -4.43555389 14.51981506 -8 14 C-10 13 -10 13 -11 11 C-11.51981506 7.43555389 -11.63102777 4.26205554 -10 1 C-6.73794446 -0.63102777 -3.56444611 -0.51981506 0 0 Z M-6 5 C-6 6.32 -6 7.64 -6 9 C-4.68 9 -3.36 9 -2 9 C-2 7.68 -2 6.36 -2 5 C-3.32 5 -4.64 5 -6 5 Z " fill="#000000" transform="translate(81,38)"/>
<path d="M0 0 C1.32 0 2.64 0 4 0 C4 7.26 4 14.52 4 22 C2.68 22 1.36 22 0 22 C0 14.74 0 7.48 0 0 Z " fill="#000000" transform="translate(64,30)"/>
</svg>
